<?xml version="1.0" encoding="UTF-8"?><svg id="Layer_2" xmlns="http://www.w3.org/2000/svg" viewBox="0 0 454.6 127.8"><defs><style>.cls-1{fill:#13120d;}</style></defs><g id="Layer_1-2"><g id="Group_995"><path id="Path_652" class="cls-1" d="m187.7,57.9c3.2,1.9,6.8,2.9,10.5,2.8,2.9.1,5.8-.5,8.5-1.8,2.5-1.1,4.7-2.9,6.5-5v5.5h9.5V15.7h-9.5v5.5h0c-.9-1.1-1.9-2.1-3-3-1.6-1.1-3.2-2-5-2.7-2.2-.8-4.4-1.2-6.7-1.2-7.8.1-15,4.4-18.7,11.2-2,3.7-3.1,7.8-3,12-.1,4.3,1,8.5,3,12.2,1.9,3.3,4.6,6.1,7.9,8.2Zm1.5-27.3c1.1-2.1,2.7-3.9,4.8-5.2,2-1.2,4.2-1.8,6.5-1.8,3.4-.1,6.7,1.2,9,3.8,2.5,2.6,3.9,6.1,3.7,9.8,0,3.6-1.2,7-3.5,9.8-2.3,2.7-5.7,4.2-9.2,4-3.5,0-6.8-1.3-9.2-3.8-2.5-2.5-3.8-5.9-3.8-9.5-.1-2.5.5-4.9,1.7-7.1Z"/><path id="Path_653" class="cls-1" d="m251.4,60.6c2.8.1,5.7-.5,8.2-1.8,2.3-1.1,4.3-2.8,5.8-5h.2v5.3h9.5V1.1h-10.5v18.2c-1.6-1.6-3.5-3-5.5-4-2.3-1-4.8-1.4-7.2-1.2-3.4,0-6.7.8-9.8,2.2-2.3,1.1-4.5,2.6-6.2,4.5-2.1,2-3.7,4.4-4.8,7-3.8,8.9-2.1,19.2,4.5,26.3,4.2,4.2,9.9,6.5,15.8,6.5Zm-10-30c1.1-2.1,2.7-3.8,4.7-5s4.2-1.8,6.5-1.8,4.4.6,6.2,1.8c2,1.2,3.6,2.9,4.7,5,2.3,4.2,2.3,9.3,0,13.5-1,2.1-2.7,3.9-4.7,5-1.9,1.2-4,1.8-6.2,1.8s-4.5-.6-6.5-1.8-3.6-2.9-4.7-5c-1.1-2.2-1.7-4.6-1.8-7,.1-2.3.7-4.5,1.8-6.5h0Z"/><path id="Path_654" class="cls-1" d="m305.9,59.2l17.5-43.5h-11.2l-10,29h-.2l-10.5-29h-11.2l17.5,43.5h8.1Z"/><path id="Path_655" class="cls-1" d="m328.3,52.6c4.2,5.3,10.7,8.3,17.5,8,2.6,0,5.3-.4,7.8-1.2,2.3-.8,4.4-2,6.2-3.5,1.9-1.5,3.6-3.3,5-5.2,1-1.5,1.7-3.2,2.2-5h-11c-1,1.7-2.4,3.1-4,4.2-1.7,1-3.7,1.6-5.7,1.5-2.7.1-5.3-.7-7.5-2.2-2.2-1.7-3.9-4.1-4.8-6.7h33.7c.5-1.9.7-3.8.8-5.8,0-3.9-1-7.8-2.8-11.2-1.9-3.4-4.6-6.3-8-8.2-3.4-2-7.3-3-11.2-3-4.1,0-8.2,1-11.8,3-3.6,2-6.5,4.9-8.5,8.5-2,3.7-3,7.8-3,12,0,5.3,1.8,10.6,5.1,14.8Zm7.5-23.2c1.1-1.7,2.5-3.1,4.2-4.2,1.8-1,3.9-1.5,6-1.5,2.8-.1,5.5.8,7.7,2.5,2.2,1.9,3.6,4.6,4,7.5h-24c.5-1.6,1.2-3,2.1-4.3Z"/><path id="Path_656" class="cls-1" d="m386.3,34.9c-.1-2,.2-3.9,1-5.7.7-1.4,1.7-2.5,3-3.2,1.6-.8,3.4-1.3,5.2-1.2v-10h-.8c-1.8,0-3.6.4-5.2,1.2-1.7,1.2-3.1,2.6-4.2,4.3h.2v-3.8h-9.5v43.5h10.5v-25l-.2-.1Z"/><path id="Path_657" class="cls-1" d="m402.8,59.2h10.2V24.9h6.2v-9.2h-6.2V1.2h-10.2v14.5h-5.2v9.2h5.2v34.3Z"/><path id="Path_658" class="cls-1" d="m184,119.8c2,2.1,4.5,3.7,7.2,4.8,2.8,1.1,5.7,1.7,8.7,1.8,2.1,0,4.2-.3,6.2-1,2.1-.6,4.1-1.5,6-2.5,2-1.1,3.8-2.7,5.2-4.5,1.7-2,3.1-4.3,4-6.8,1-2.7,1.5-5.6,1.5-8.5,0-4.1-1-8.1-3-11.7s-4.9-6.5-8.5-8.5c-7.1-4-15.9-4-23,0-3.6,2-6.5,4.9-8.5,8.5-3.7,6.6-4,14.6-.8,21.5,1.3,2.6,2.9,5,5,6.9Zm5.2-23.4c1.2-2.1,2.9-3.8,5-5,1.9-1.2,4-1.8,6.2-1.8s4.2.6,6,1.8c2,1.2,3.6,2.9,4.8,5s1.8,4.6,1.8,7c0,3.5-1.2,6.9-3.5,9.5s-5.6,4.1-9,4c-2.2,0-4.4-.6-6.2-1.8-2-1.2-3.6-2.9-4.8-5s-1.8-4.6-1.8-7c-.3-2.4.2-4.8,1.5-6.7h0Z"/><path id="Path_659" class="cls-1" d="m265.1,87.4c-1.6-2.1-3.7-3.9-6-5.2-2.5-1.4-5.4-2.1-8.2-2-2.1,0-4.3.4-6.2,1.2-2.1,1-4,2.4-5.7,4v-3.7h-9.8v43.4h10.5v-20.7c-.2-3,.1-6.1,1-9,.6-1.7,1.7-3.2,3.2-4.2,1.6-1,3.4-1.5,5.2-1.5,1.7,0,3.3.4,4.8,1.2,1.3,1,2.3,2.4,2.8,4,.6,2.8.8,5.6.8,8.5v21.5h10.5v-23.5c0-2.8-.1-5.5-.5-8.2-.3-2.2-1.1-4.2-2.4-5.8Z"/><path id="Path_660" class="cls-1" d="m280.1,118.1c4.2,5.5,10.8,8.6,17.7,8.5,3.6.1,7.2-.7,10.5-2.2,3-1.4,5.7-3.6,7.8-6.2,1.6-2.1,2.9-4.5,3.7-7h-11.7c-1.1,1.9-2.6,3.4-4.5,4.5-1.7,1-3.6,1.5-5.5,1.5-2.3,0-4.5-.6-6.5-1.8-2.1-1.1-3.7-2.9-4.7-5-1.2-2.1-1.8-4.6-1.8-7-.1-2.5.5-4.9,1.8-7,1-2,2.7-3.7,4.7-4.7,1.9-1.1,4.1-1.7,6.2-1.8,2.2-.1,4.4.5,6.2,1.8,1.5,1.3,2.7,2.8,3.7,4.5h11.7c-.6-1.7-1.4-3.4-2.2-5-1.8-3.1-4.4-5.7-7.5-7.5-1.8-1-3.7-1.9-5.7-2.5-2.1-.6-4.3-.9-6.5-1-4,0-8,1-11.5,3-3.6,2-6.5,4.9-8.5,8.5-2,3.5-3,7.5-3,11.5.2,5.3,2.2,10.6,5.6,14.9Z"/><rect id="Rectangle_349" class="cls-1" x="326.3" y="67.1" width="10.5" height="58"/><rect id="Rectangle_350" class="cls-1" x="345.1" y="67.1" width="10.5" height="9.5"/><rect id="Rectangle_351" class="cls-1" x="345.1" y="81.6" width="10.5" height="43.5"/><path id="Path_661" class="cls-1" d="m362.6,103.3c0,5.4,1.8,10.6,5.2,14.7,4.2,5.5,10.8,8.6,17.7,8.5,3.6.1,7.2-.7,10.5-2.2,3-1.4,5.7-3.6,7.8-6.2,1.6-2.1,2.9-4.5,3.7-7h-11.7c-1.1,1.9-2.6,3.4-4.5,4.5-1.7,1-3.6,1.5-5.5,1.5-2.3,0-4.5-.6-6.5-1.8-2.1-1.1-3.7-2.9-4.7-5-1.2-2.1-1.8-4.6-1.8-7-.1-2.5.5-4.9,1.8-7,1-2,2.7-3.7,4.7-4.8,1.9-1.1,4.1-1.7,6.2-1.7,2.2-.1,4.4.5,6.2,1.7,1.5,1.3,2.7,2.8,3.7,4.5h11.8c-.6-1.7-1.4-3.4-2.2-5-.8-1.4-1.8-2.8-3-4-1.3-1.4-2.9-2.5-4.5-3.5-1.8-1-3.7-1.9-5.7-2.5-2.1-.6-4.3-.9-6.5-1-4,0-8,1-11.5,3-3.6,2-6.5,4.9-8.5,8.5-1.7,3.8-2.6,7.8-2.7,11.8Z"/><path id="Path_662" class="cls-1" d="m416.3,67.2v58h10.2v-20.3h.2l14.7,20.2h13.2l-17.6-22.3,15.5-21.2h-12l-13.8,20.5h-.2v-34.9h-10.2Z"/></g><path class="cls-1" d="m59.8,0v13h-17v17.1H0v64.8h59.8v32.9h37.9v-32.9h57V0H59.8Zm-12.1,18h12v12h-12v-12Zm12.1,71.9H5v-54.8h54.8v54.8Zm32.8,32.8h-27.8v-27.8h27.9v27.8h-.1Zm57.1-32.8h-84.9V5h84.9v84.9h0Z"/></g></svg>