<svg xmlns="http://www.w3.org/2000/svg" viewBox="0 0 545.6 82.37"><defs><style>.cls-1{fill:#231f20;}.cls-2{fill:#ee5525;}</style></defs><g id="Layer_2" data-name="Layer 2"><g id="Layer_1-2" data-name="Layer 1"><path class="cls-1" d="M100.28,26.83h13.38V81.74H100.28Z"/><path class="cls-1" d="M153.48,58.05c0-6-3.28-9.23-8.36-9.23s-8.37,3.28-8.37,9.23v23.7H123.37V38.1h13.38v5.79A16,16,0,0,1,150,37.63c10.09,0,16.82,6.88,16.82,18.62v25.5h-13.3Z"/><path class="cls-1" d="M177.44,49.21H172.6V38.1h4.84V36.83c0-11.42,7.05-17,20.34-16.35V31.83c-5.16-.31-7,1.26-7,5.87v.39H198V49.21h-7.19V81.75H177.44Z"/><path class="cls-1" d="M270.46,81.75H257.09v-6a15.86,15.86,0,0,1-13.21,6.41c-10.1,0-16.9-7-16.9-18.61V38.1h13.3V61.83c0,5.94,3.36,9.23,8.37,9.23s8.44-3.29,8.44-9.23V38.1h13.37Z"/><path class="cls-1" d="M299.51,82.37c-12.82,0-22.05-8.6-22.05-22.45s9.07-22.44,22.05-22.44c12.75,0,21.75,8.44,21.75,21.74a34,34,0,0,1-.23,3.91H290.76c.46,5.71,4,8.37,8.29,8.37a7.13,7.13,0,0,0,7-4.22h14.23C318.13,75.83,310.38,82.37,299.51,82.37ZM290.83,55.7h16.74c0-4.77-3.75-7.51-8.21-7.51s-7.74,2.64-8.53,7.51Z"/><path class="cls-1" d="M358.44,58.05c0-6-3.28-9.23-8.37-9.23s-8.36,3.28-8.36,9.23v23.7H328.32V38.1h13.39v5.79c2.65-3.68,7.34-6.26,13.21-6.26,10.09,0,16.82,6.88,16.82,18.62v25.5h-13.3Z"/><path class="cls-1" d="M400.32,37.48c10.94,0,18.69,6,21,16.42H407a6.88,6.88,0,0,0-7-5c-4.77,0-8.06,3.75-8.06,11s3.29,11,8.06,11c3.68,0,5.79-1.8,7-5h14.24c-2.27,10.09-10,16.42-21,16.42-12.84,0-21.91-8.6-21.91-22.45S387.48,37.48,400.32,37.48Z"/><path class="cls-1" d="M447.81,82.37c-12.82,0-22.05-8.6-22.05-22.45s9.07-22.44,22.05-22.44c12.75,0,21.75,8.44,21.75,21.74a34,34,0,0,1-.23,3.91H439.06c.46,5.71,4,8.37,8.29,8.37a7.11,7.11,0,0,0,7-4.22h14.23C466.43,75.83,458.69,82.37,447.81,82.37ZM439.13,55.7h16.74c0-4.77-3.75-7.51-8.21-7.51S439.92,50.83,439.13,55.7Z"/><path class="cls-1" d="M490,81.75H476.63V38.1H490v7.27a16.26,16.26,0,0,1,13.68-7.74v14.2H500c-6.34,0-10,2.19-10,9.7Z"/><path class="cls-1" d="M527.88,82.37c-11.66,0-19.48-6.49-20.1-14.94H521c.31,3,3,5.09,6.72,5.09C531.16,72.52,533,71,533,69c0-7-23.78-2-23.78-18,0-7.43,6.34-13.53,17.76-13.53,11.26,0,17.52,6.25,18.38,14.86H533c-.39-3-2.66-4.93-6.41-4.93-3.13,0-4.85,1.25-4.85,3.36,0,7,23.62,2,23.86,18.31C545.56,76.66,538.83,82.37,527.88,82.37Z"/><path class="cls-1" d="M203.44,20.47V31.94c2.91.46,4,2.18,4,5.77v44h13.38V36.83C220.84,26.31,214.82,20.71,203.44,20.47Z"/><g id="Group_221" data-name="Group 221"><path class="cls-2" d="M72.1,0h0V0H8.24A8.24,8.24,0,0,0,0,8.24V72.12a8.24,8.24,0,0,0,8.23,8.25h7.89a25.05,25.05,0,0,0,18.07-7.71h.05a8.23,8.23,0,0,1,11.64-.26l.26.26A25.08,25.08,0,0,0,64.25,80.4h7.84a8.24,8.24,0,0,0,8.24-8.24V8.28A8.24,8.24,0,0,0,72.1,0ZM33.52,46.83a6.65,6.65,0,0,1,6.65-6.65v0a6.65,6.65,0,1,1-6.65,6.68ZM71.19,64.25a7,7,0,0,1-6.94,7H64a15.42,15.42,0,0,1-11.12-4.74,17.2,17.2,0,0,0-7.54-4.76A15.8,15.8,0,0,0,40.25,31h-.08v0A15.78,15.78,0,0,0,35,61.74a17.1,17.1,0,0,0-6.67,3.86c-.25.23-.49.47-.72.71a16,16,0,0,1-11.49,4.9,7,7,0,0,1-6.95-7V16.12a7,7,0,0,1,7-7H63.5a7.69,7.69,0,0,1,7.69,7.66Z"/></g></g></g></svg>