<svg id="Group_228" data-name="Group 228" xmlns="http://www.w3.org/2000/svg" viewBox="0 0 141.43 38.51">
  <defs>
    <style>
      .cls-1 {
        fill: #ff5000;
      }

      .cls-2 {
        fill: #221f1f;
      }
    </style>
  </defs>
  <g id="Group_226" data-name="Group 226" transform="translate(0 2.472)">
    <g id="Group_221" data-name="Group 221" transform="translate(0 0)">
      <path id="Path_198" data-name="Path 198" class="cls-1" d="M36.038,46.938H24.018l-5.987-6.26-6.01,6.26H0V10.9H36.038ZM25.991,42.289h5.42V15.527H4.627V42.311h5.42l7.961-8.346Z" transform="translate(0 -10.9)"/>
    </g>
    <g id="Group_222" data-name="Group 222" transform="translate(45.087)">
      <path id="Path_199" data-name="Path 199" d="M198.8,19.79v-.045a8.922,8.922,0,0,1,9.185-8.845,8.832,8.832,0,0,1,9.14,8.8v.045a8.922,8.922,0,0,1-9.185,8.845A8.832,8.832,0,0,1,198.8,19.79Zm13.517,0v-.045a4.411,4.411,0,0,0-4.377-4.581,4.331,4.331,0,0,0-4.309,4.536v.045a4.426,4.426,0,0,0,4.354,4.6A4.368,4.368,0,0,0,212.317,19.79Z" transform="translate(-198.8 -10.9)"/>
      <path id="Path_200" data-name="Path 200" d="M290.4,12.4h4.99l4.06,6.577,4.06-6.577h4.99V29.41H303.8V19.635L299.449,26.3h-.091l-4.332-6.6v9.73H290.4Z" transform="translate(-269.625 -12.06)"/>
      <path id="Path_201" data-name="Path 201" d="M383.4,12.4h4.4l6.985,8.981V12.4h4.672V29.41h-4.128l-7.257-9.321V29.41H383.4Z" transform="translate(-341.534 -12.06)"/>
      <path id="Path_202" data-name="Path 202" d="M467.5,12.4h13.676v3.992h-9.026v2.585h8.165V22.7h-8.165v2.7h9.14V29.41H467.5Z" transform="translate(-406.56 -12.06)"/>
      <path id="Path_203" data-name="Path 203" d="M533.2,25.787l2.631-3.13a8.733,8.733,0,0,0,5.511,2.041c1.27,0,1.95-.431,1.95-1.157v-.068c0-.7-.567-1.089-2.858-1.633-3.629-.816-6.418-1.837-6.418-5.352v-.045c0-3.152,2.495-5.443,6.577-5.443a10.7,10.7,0,0,1,7.008,2.268L545.243,16.6a8.563,8.563,0,0,0-4.763-1.678c-1.134,0-1.7.476-1.7,1.089v.045c0,.771.59,1.111,2.948,1.656,3.9.839,6.35,2.109,6.35,5.307v.045c0,3.47-2.744,5.534-6.872,5.534A11.748,11.748,0,0,1,533.2,25.787Z" transform="translate(-457.36 -10.977)"/>
    </g>
    <g id="Group_225" data-name="Group 225" transform="translate(45.064 22.249)">
      <g id="Group_223" data-name="Group 223">
        <path id="Path_204" data-name="Path 204" class="cls-2" d="M198.723,109.4h.953l5.443,8.029,5.443-8.029h.953v13.585h-1.021V111.192l-5.375,7.824h-.068l-5.375-7.824v11.793H198.7V109.4Z" transform="translate(-198.7 -109.309)"/>
        <path id="Path_205" data-name="Path 205" class="cls-2" d="M273.1,109.4h9.661v.93H274.1v5.33h7.779v.93H274.1v5.443h8.754v.93H273.1Z" transform="translate(-256.226 -109.309)"/>
        <path id="Path_206" data-name="Path 206" class="cls-2" d="M330.4,109.4h4.513c4.264,0,7.212,2.926,7.212,6.759v.045c0,3.833-2.948,6.781-7.212,6.781H330.4Zm4.513,12.655c3.787,0,6.169-2.585,6.169-5.829v-.045a5.8,5.8,0,0,0-6.169-5.851H331.4v11.725Z" transform="translate(-300.531 -109.309)"/>
        <path id="Path_207" data-name="Path 207" class="cls-2" d="M397.9,109.4h1v13.585h-1Z" transform="translate(-352.722 -109.309)"/>
        <path id="Path_208" data-name="Path 208" class="cls-2" d="M422,109h.975l6.328,13.676H428.2l-1.724-3.81h-8.006l-1.724,3.81H415.7Zm4.037,8.958-3.561-7.847-3.583,7.847Z" transform="translate(-366.485 -109)"/>
      </g>
      <g id="Group_224" data-name="Group 224" transform="translate(64.637 7.416)">
        <path id="Path_209" data-name="Path 209" class="cls-2" d="M483.7,164.7h.794v1.021H483.7Z" transform="translate(-483.7 -159.484)"/>
        <path id="Path_210" data-name="Path 210" class="cls-2" d="M493.5,144.9v-.023a3.156,3.156,0,0,1,3.107-3.175,3.2,3.2,0,0,1,2.427,1.111l-.408.431a2.686,2.686,0,0,0-2.018-1,2.506,2.506,0,0,0-2.449,2.608v.023a2.549,2.549,0,0,0,2.495,2.631,2.682,2.682,0,0,0,2.041-1.021l.408.363a3.134,3.134,0,0,1-5.6-1.95Z" transform="translate(-491.277 -141.7)"/>
        <path id="Path_211" data-name="Path 211" class="cls-2" d="M522.7,144.9v-.023a3.119,3.119,0,1,1,6.237-.023v.023a3.131,3.131,0,0,1-3.13,3.175A3.093,3.093,0,0,1,522.7,144.9Zm5.6,0v-.023a2.534,2.534,0,0,0-2.495-2.631,2.5,2.5,0,0,0-2.472,2.608v.023a2.534,2.534,0,0,0,2.495,2.631A2.5,2.5,0,0,0,528.3,144.9Z" transform="translate(-513.855 -141.7)"/>
        <path id="Path_212" data-name="Path 212" class="cls-2" d="M558.123,141.836h.59v1.089a2.231,2.231,0,0,1,2.018-1.225,2.15,2.15,0,0,1,2.041,1.315,2.4,2.4,0,0,1,2.2-1.315,2.285,2.285,0,0,1,2.336,2.54v3.674h-.59v-3.606c0-1.315-.68-2.064-1.792-2.064A1.975,1.975,0,0,0,563,144.4v3.538h-.59v-3.674c0-1.27-.68-2.041-1.769-2.041a2.052,2.052,0,0,0-1.95,2.177v3.493h-.59v-6.055Z" transform="translate(-541.227 -141.7)"/>
      </g>
    </g>
  </g>
  <g id="Group_227" data-name="Group 227" transform="translate(136.508)">
    <path id="Path_213" data-name="Path 213" d="M602.648.5H601.9V0h2.041V.5h-.748V2.472h-.544Z" transform="translate(-601.9)"/>
    <path id="Path_214" data-name="Path 214" d="M612.7,0h.59l.658,1.043L614.582,0h.59V2.472h-.544V.862l-.7,1.043H613.9l-.68-1.043v1.61H612.7Z" transform="translate(-610.251)"/>
  </g>
</svg>
